<svg
 xmlns="http://www.w3.org/2000/svg"
 xmlns:xlink="http://www.w3.org/1999/xlink"
 width="47px" height="49px">
<path fill-rule="evenodd"  fill="rgb(89, 83, 83)"
 d="M33.699,17.613 C33.699,8.307 26.155,0.763 16.849,0.763 C7.545,0.763 0.002,8.307 0.002,17.613 C0.002,26.918 7.545,34.460 16.849,34.460 C19.396,34.460 21.800,33.877 23.964,32.869 L39.335,48.238 L46.355,41.219 L31.330,26.193 C32.825,23.678 33.699,20.752 33.699,17.613 ZM16.849,28.522 C10.824,28.522 5.940,23.638 5.940,17.613 C5.940,11.585 10.824,6.701 16.849,6.701 C22.875,6.701 27.761,11.585 27.761,17.613 C27.761,23.638 22.875,28.522 16.849,28.522 Z"/>
</svg>
