<svg
 xmlns="http://www.w3.org/2000/svg"
 xmlns:xlink="http://www.w3.org/1999/xlink"
 width="79px" height="80px">
<path fill-rule="evenodd"  fill="rgb(51, 184, 164)"
 d="M39.500,-0.000 C61.315,-0.000 79.000,17.909 79.000,40.000 C79.000,62.091 61.315,80.000 39.500,80.000 C17.685,80.000 0.000,62.091 0.000,40.000 C0.000,17.909 17.685,-0.000 39.500,-0.000 Z"/>
<path fill-rule="evenodd"  fill="rgb(255, 255, 255)"
 d="M42.997,56.867 C42.997,59.690 42.683,62.000 42.298,62.000 L37.702,62.000 C37.317,62.000 37.003,59.690 37.003,56.867 L37.003,23.133 C37.003,20.310 37.317,18.000 37.702,18.000 L42.298,18.000 C42.683,18.000 42.997,20.310 42.997,23.133 L42.997,56.867 Z"/>
<path fill-rule="evenodd"  fill="rgb(255, 255, 255)"
 d="M23.133,42.997 C20.310,42.997 18.000,42.683 18.000,42.298 L18.000,37.702 C18.000,37.317 20.310,37.003 23.133,37.003 L56.867,37.003 C59.690,37.003 62.000,37.317 62.000,37.702 L62.000,42.298 C62.000,42.683 59.690,42.997 56.867,42.997 L23.133,42.997 Z"/>
</svg>
